<svg viewBox="0 0 64 64" fill="none" xmlns="http://www.w3.org/2000/svg">
<g transform="scale(2)">
<!-- Same rounded rect as other Adobe icons (Illustrator, XD, AE) -->
<path d="M2 12.1333C2 8.58633 2 6.81283 2.69029 5.45806C3.29749 4.26637 4.26637 3.29749 5.45806 2.69029C6.81283 2 8.58633 2 12.1333 2H19.8667C23.4137 2 25.1872 2 26.5419 2.69029C27.7336 3.29749 28.7025 4.26637 29.3097 5.45806C30 6.81283 30 8.58633 30 12.1333V19.8667C30 23.4137 30 25.1872 29.3097 26.5419C28.7025 27.7336 27.7336 28.7025 26.5419 29.3097C25.1872 30 23.4137 30 19.8667 30H12.1333C8.58633 30 6.81283 30 5.45806 29.3097C4.26637 28.7025 3.29749 27.7336 2.69029 26.5419C2 25.1872 2 23.4137 2 19.8667V12.1333Z" fill="#49021F"/>
<!-- Official Adobe InDesign CC "Id" from Wikimedia Commons; centered: bbox center ~(138.6, 114.1), scale 0.12, then translate to (16, 16) -->
<g transform="translate(18.5, 16) scale(0.12) translate(-138.6, -114.1)">
<path d="m87.2 61.2v103c0 1.1-0.5 1.6-1.4 1.6h-19.6c-0.9 0-1.3-0.5-1.3-1.6v-103c0-0.9 0.5-1.3 1.4-1.3h19.5c0.6-0.1 1.2 0.3 1.3 1 0.1 0.1 0.1 0.2 0.1 0.3z" fill="#FF3366"/>
<path d="m145 167c-7.4 0.1-14.8-1.4-21.5-4.5-6.3-2.9-11.5-7.7-15.1-13.6-3.7-6.1-5.5-13.7-5.5-22.8-0.1-7.4 1.8-14.7 5.5-21.1 3.8-6.5 9.3-11.9 15.9-15.5 7-3.9 15.4-5.8 25.3-5.8 0.5 0 1.2 0 2.1 0.1s1.9 0.1 3.1 0.2v-31.6c0-0.7 0.3-1.1 1-1.1h20.3c0.5-0.1 0.9 0.3 1 0.7v0.2 95.2c0 1.8 0.1 3.8 0.2 6 0.2 2.1 0.3 4.1 0.4 5.8 0 0.7-0.3 1.3-1 1.6-5.2 2.2-10.7 3.8-16.3 4.8-5 0.9-10.2 1.4-15.4 1.4zm9.8-20v-44c-0.9-0.2-1.8-0.4-2.7-0.5-1.1-0.1-2.2-0.2-3.3-0.2-3.9 0-7.8 0.8-11.3 2.6-3.4 1.7-6.3 4.2-8.5 7.4s-3.3 7.5-3.3 12.7c-0.1 3.5 0.5 7 1.7 10.3 1 2.7 2.5 5.1 4.5 7.1 1.9 1.8 4.2 3.2 6.8 4 2.7 0.9 5.5 1.3 8.3 1.3 1.5 0 2.9-0.1 4.2-0.2 1.3 0.1 2.5-0.1 3.6-0.5z" fill="#FF3366"/>
</g>
</g>
</svg>
