<svg width="1600" height="1050" viewBox="0 0 1600 1050" fill="none" xmlns="http://www.w3.org/2000/svg">
  <rect width="1600" height="1050" fill="#F2F5F9"/>
  <path d="M0 175H1600M0 350H1600M0 525H1600M0 700H1600M0 875H1600M266 0V1050M532 0V1050M798 0V1050M1064 0V1050M1330 0V1050" stroke="#C6CFDA"/>
  <rect x="180" y="170" width="520" height="690" fill="#FFFFFF" stroke="#AAB4C2" stroke-width="2"/>
  <rect x="245" y="245" width="220" height="26" fill="#111111"/>
  <rect x="245" y="315" width="360" height="16" fill="#111111" opacity="0.28"/>
  <rect x="245" y="355" width="310" height="16" fill="#111111" opacity="0.18"/>
  <rect x="245" y="450" width="380" height="235" fill="#0055FF" opacity="0.9"/>
  <rect x="870" y="230" width="520" height="560" fill="#111111"/>
  <path d="M940 320H1320M940 390H1240M940 460H1280M940 590H1160" stroke="#CEFF00" stroke-width="18"/>
</svg>
