<svg width="1600" height="1050" viewBox="0 0 1600 1050" fill="none" xmlns="http://www.w3.org/2000/svg">
  <rect width="1600" height="1050" fill="#101114"/>
  <path d="M0 210H1600M0 420H1600M0 630H1600M0 840H1600M320 0V1050M640 0V1050M960 0V1050M1280 0V1050" stroke="#2A2D33"/>
  <rect x="170" y="150" width="1260" height="750" fill="#151922" stroke="#3B4250" stroke-width="2"/>
  <rect x="250" y="250" width="620" height="72" fill="#CEFF00"/>
  <rect x="250" y="370" width="460" height="22" fill="#F5F2EC" opacity="0.72"/>
  <rect x="250" y="425" width="540" height="22" fill="#F5F2EC" opacity="0.34"/>
  <rect x="250" y="520" width="210" height="64" fill="#0055FF"/>
  <rect x="960" y="250" width="300" height="300" fill="#222836" stroke="#4C5668" stroke-width="2"/>
  <circle cx="1110" cy="400" r="84" fill="#CEFF00" opacity="0.85"/>
  <path d="M960 690H1310M960 745H1230M960 800H1360" stroke="#F5F2EC" stroke-width="18" opacity="0.38"/>
</svg>
